/* XPM */
static char *b31a052d05e44ec8ca3a521bcd2aabe5Bofk9AeYOFn65diT[] = {
/* columns rows colors chars-per-pixel */
"64 64 19 1 ",
"  c black",
". c #201B14",
"X c #241E16",
"o c #262017",
"O c #2B231A",
"+ c #2C241B",
"@ c #2D261C",
"# c #332A1F",
"$ c #332B20",
"% c #362F23",
"& c #382F23",
"* c #3B3226",
"= c #3D3325",
"- c #3E3528",
"; c #423729",
": c #473C2D",
"> c #483F2F",
", c #4F4231",
"< c #574B38",
/* pixels */
" ####O#$:,,;>< OX#::$;,&,>< #+:*;&--<<> ###X#:,&;<< #OOOO=::,;->",
" ##OXX+::,,,-> OO==:$:,&<>< #+$:,,<<<<> O###+*,;;<< ##OOO::,,<>>",
" OXXX#=::,,<-> OO==:$*,&>>< #=$$,,<<<<> OO#=#$&#-<< O###+$,,,<<<",
" XXO#O#*:,,<-- OXO=:*;,;>>< #==$,,<<>>> OO#==:,,<<- XX#==$&,,<<<",
" X##OO+**;;<<- #OO=:*;,;>>< ##=$:,<<>-- OXOO=:,,<>- #XX=::&;<<<<",
" ##OX++*$;;><< #OX#:*&,>>>< ##=$:,,>--> #OXO=::,>-> ##X#::,&><<<",
" #OXX#*:*&->>< ####::&,>>>< ###$:,,-->< ##OO#::;-<< ##O#::,;><<<",
" #OX#=:::;->>< ####::&,>->< OO+#:,;#<<< ##OX#::;;<< ##O+*:,;-<<<",
" #Oo=::::,-%>< ###*:*&,,->< XO==:,;&><< ###O+=:$;<< ####$:,,-<<<",
" #O#=::*;,<>-< ##+***;,,->< X##=:,,;><< ###OX=:$,<< ###=$,,,-><<",
" #O#:::;;,<<-> #O+:***,,->< X##=:,,;&>< ###XO=$$,<> ###=$,,,>><<",
" #O#*:,;&&<<>> #O#=*$*,,->< XO#=::,,;-< ##XXX+$:,<> ##==$;,,>-<<",
" ##+*:;&&&><<> #O#=:*$,,->< OXO==:,,;-< #OXXX=::,>> ##=*$*,,<-<<",
" ##+*:,&&;><<> OX#=::*;;&>< #OXO=:,,;;< #####=::,>> ##=+*:,,<-<<",
" ##+$:,;&&><>> OO#=::*;;;<< ##OX#::;&;< ####==::,>- ##O+::,,,-<<",
" ###$:,;;;<<>< OX#==:*;;;<< ###OO=*&;,< XX##==:,;>- ##O#:::,,-<<",
" ##=$:,,,<<<>< #X#==:**,&<< O##OO=$;,,< #XXO==:,;-> ##O#=::,&><<",
" ##=+$:,,<<<>< #X#==:$*,&<< O##OO=$,,,< ##OX+:,,--< ##X#=::;&<<<",
" O#=#$$;,<<>>< #X##=*$:,&<< XO##O#$,,,< ###O+:,;-<< #XX==::&;<<-",
" O#==:$&,>>><< #OO#=**:,&<< XOO#=**;,,< ####$,,;-<< OX##=:$&,<>-",
" OO==::;;>>><> ##X#=**:,&<< XXO==*&;,,< ##O#$,,>><< ####=$$:,<>-",
" OX==::*;<<<<> ##XO=***,&<< #XO#:*&,,,< #O#$$,,>><< #####+::,;--",
" OX+=:::,<<<>> ##OO=***,&<< #XO#::,,,<< #O+$:,,>-<< ###O+#::,;->",
" #O+#:::,<<<>< ##OO=:**,&<< #OO#::,,,<< #O+::,,>-<< ##OX#=::,;-<",
" ###+:::,<>->< ##OX=:**,&<< #XX#:,,,,<< #O+*:,,,-<< ##XO#=::;&><",
" ###+:::,<->>< ###+::*$,&>< #XX#:,,,<<< ###$::,,-<< #XXOO=::&&<<",
" ##=$:::,>-><< ###+:::&,;>< #XO::,,,<<> ##=+*:,,-<< OXOO#=:$&,<<",
" ##=$*:,,>>><< ###+:::&;,-< #X#::,,,>>> X###$:,,--< OOO##=*$,,<<",
" ##=+$:,,>>><< ##=+*::;;,-< #X#::,;>>>- XX#=$:,,>-- OO###=*$,,<<",
" ##=#$:,,;>><< ##=**::;;,-< #X#::;;---> #XO=$$,,,>- ######$$,,<<",
" ##=#$$,,;>>>< ##=*$:,;;<-< #X#:,;&><<< #OO=*$,,,<> ######$:,,,<",
" O#==*$*&&>>>< ##=:$:,;;<>> ##$*,;&<<<< #XO=*$,,,<< ###OO+#::,,>",
" O##=:$$;;>><< #==:$:,;;<>> #=$$;,&><<< XX#=*$,,,<< ##OOX#=::,;>",
" OX#=:**;,>><< #=::$:,&;<>> O=:$&;&><<< XO#=*$,,,<< #OOXO==::;;>",
" OXO=:**;,<<<< #=:*$:,;;<>< X=::&#;<<<< ###=*$,,,<< OXO###=:*;;>",
" #OX#::*;,<<<- #==**,,;><>< X#::,#&<<<< ##O#*$,,,<< OO####=*$;;<",
" ##O+:::,,<--> #==$*,,;><>> X+::,,,<<<> #OO+*;,,<<< #######$*,,<",
" ##O+:::,,&->< ###$:,,&><>- #+*:,,,<<>> OX+#:,,,<<< ######+*,,<<",
" ##O#=::,,&><< ###*:,,&<<>- #+$:,,,<>>> XO=::,,;->< ####O+*,,,<<",
" ##O##::,&&><- ##+*:,;&<<<- #O+:,,,,>-> ##=:$&&#>>> ###OO#:,,;--",
" O###+::,&;<>- ##+*:,;-<<<- #O+*:,,,>>< ##=$$:,;--> ###O#*:,;-><",
" O##O+::,;;<-> ###*:,,-<<<- ##+$*:,,&>< ##=$:*&;<-> ###O#::;&><<",
" O##O+*::&;,-> ###*:,,-<<<- ##O+$:,,&<< ##=#:$,,<-> ###O#::;&<<<",
" X##O#$*:&&,>- ###$:,,-<<<- ####+:,;&<< ###=:$;<>-< #####::,&<<<",
" .X#O#+*:*&;<< ##=$:,,&<<<- ####+::;&,< X##=:*&-->< ###+*::,-><<",
" O.#O#o*:$&;>< ##=$*,,&><-- ###OX:$&;,< OOO=::,<<<< ###+*:,,>-><",
" #.O##o::$&;>> ##=**,,;><-< X##XO+$,,,> OOO=::,,<>> X###$*,,<>--",
" #.O#X+::$&;>> ##=#*,,;><-< XO#XX+:,,,> OXO=:,,,<-> O##=**;,<<<>",
" XX##X#:::&&<> ###+*,,;><-< #X###=:,,,> #XO=:,,,;>> O##=**;,<<<>",
" O##O##::*;,<< ###+::;&><-< #XX##=:,,;> OO#=:*;,;-< O##=:*&;<<<<",
" ##OO#*:**;,<< ###+::&;,>-< ##XO#=:,;;< O#=:***,,-> .##=::;&-<<<",
" ##OO#:***,<<< ###+::&,,>>< #OXO#::,;;< ##==***,,;> XO#=::,,;-><",
" #OO##:**;,<<> ###+:*&,,>>< #XO#=::,;;< ##O#***,,,> OXO==::,,>--",
" #OO#::*$;,<-- ###$:*;,;>>< OX##=:,,;>< ##OO+$**,,< #OX##::,,<<>",
" #OO=::*&,,--< ##=$:$;,;<>< OO##=:,;;>< ##OX#$:*,,< ##OX+*:,,<<<",
" #O#=::*&,,->< ###$:$,,><>< XO###*,;;>< #OXO=#+*,,< ###OX+*,,<<<",
" OO#=::;&,<-<< ###*:&,,->>< O##X+$,,>>> #OX###+*,,< ####O+$,,<<<",
" ##==::,&&<-<< ##O#:&,;>>>< ##X+*$&&<>> OOX##=+*;;< ######O;,<<<",
" ##==::,;&<-<< ##X#:&,>>>>< ##X#*:,&<<< OXO##=+$;;> #####=$#,<<<",
" ##==::;;&<-<< #OX=:&,>>><< ##X#:,,&><< XO###=:$&&> #####=*#,<<<",
" ##==::;&&<->< #XO=:;;>-<<< O#X$;,,&-<< ####==::,;- #####=*@,<<<",
" ##==::*&,,->< #X#=:;;<-<<< XO#$&;,>-<< #####+::,,- #####=:$,<<<",
" ###==:**,,&>< OX#=:&;,&><< OO*$&&<>-<> ####+$*:,<> O####=:*&;<<",
" ####==*:,,;>< OX==:&;,&;>< O+*$&&>--<> ###X+:*&,<- #XOO#=::;&><"
};
